<?xml version="1.0" encoding="UTF-8"?>
<svg id="Home" xmlns="http://www.w3.org/2000/svg" viewBox="0 0 80 80">
  <defs>
    <style>
      .cls-1 {
        fill: #d24b48;
      }

      .cls-2 {
        fill: #472b29;
      }

      .cls-3 {
        fill: #605e60;
      }

      .cls-4 {
        fill: #f8e55b;
      }

      .cls-5 {
        fill: #eaecde;
      }
    </style>
  </defs>
  <circle class="cls-5" cx="40.11" cy="40.07" r="39.73"/>
  <g>
    <path class="cls-1" d="M66.53,38.18s.59-3.39-.35-6.29v-.04c-.95-2.9-3.42-5.29-3.42-5.29-1.17-5.23-4.43-6.82-7.74-5.39-.54.24-1.08.53-1.61.87l-6.05,11.02-.37,10.67s10,4.8,16.44,3.36c3.52-.78,5.23-3.99,3.09-8.9Z"/>
    <path class="cls-1" d="M46.22,14.55s-3.04-1.61-6.09-1.61h-.04c-3.04,0-6.09,1.61-6.09,1.61-5.34-.51-7.85,2.1-7.51,5.69.62,6.57,8.27,14.6,8.27,14.6h10.7s7.65-8.03,8.27-14.6c.34-3.59-2.18-6.2-7.51-5.69Z"/>
    <path class="cls-2" d="M46.07,35.42l-1.21-1.16c.08-.08,7.46-7.9,8.05-14.1.13-1.41-.23-2.59-1.07-3.42-1.13-1.13-3.04-1.6-5.53-1.36-.16.01-.33-.02-.47-.09-.03-.01-2.91-1.51-5.7-1.51s-5.71,1.49-5.74,1.51c-.15.08-.31.11-.47.09-2.5-.24-4.41.23-5.53,1.36-.83.83-1.2,2.02-1.07,3.42.59,6.2,7.97,14.02,8.05,14.1l-1.21,1.16c-.32-.34-7.86-8.32-8.5-15.1-.18-1.92.36-3.57,1.55-4.77,1.02-1.02,2.99-2.15,6.63-1.86.79-.38,3.49-1.59,6.25-1.59s5.5,1.2,6.29,1.59c3.65-.3,5.62.84,6.63,1.86,1.2,1.2,1.73,2.84,1.55,4.77-.64,6.78-8.18,14.76-8.5,15.1Z"/>
    <path class="cls-2" d="M38.19,31.26c-.27,0-.51-.18-.58-.45l-1.56-6.25c-.08-.32.12-.65.44-.73.32-.08.65.11.73.44l1.56,6.25c.08.32-.12.65-.44.73-.05.01-.1.02-.14.02Z"/>
    <path class="cls-2" d="M34.97,18.37c-.27,0-.51-.18-.58-.45l-.79-3.18c-.08-.32.11-.65.44-.73.32-.08.65.11.73.44l.79,3.18c.08.32-.11.65-.44.73-.05.01-.1.02-.14.02Z"/>
    <path class="cls-2" d="M45.26,18.37s-.1,0-.14-.02c-.32-.08-.52-.4-.44-.73l.79-3.18c.08-.32.4-.52.73-.44.32.08.52.4.44.73l-.79,3.18c-.07.27-.31.45-.58.45Z"/>
    <path class="cls-2" d="M43.33,25.92s-.1,0-.14-.02c-.32-.08-.52-.4-.44-.73l.23-.92c.08-.32.41-.52.73-.44.32.08.52.4.44.73l-.23.92c-.07.27-.31.45-.58.45Z"/>
    <path class="cls-2" d="M42,31.26s-.1,0-.14-.02c-.32-.08-.52-.4-.44-.73l.82-3.28c.08-.32.4-.52.73-.44.32.08.52.4.44.73l-.82,3.28c-.07.27-.31.45-.58.45Z"/>
    <path class="cls-1" d="M25.21,21.17c-3.31-1.43-6.57.15-7.74,5.39,0,0-2.47,2.4-3.41,5.29v.04c-.95,2.9-.37,6.29-.37,6.29-2.13,4.92-.43,8.12,3.09,8.91,6.44,1.44,16.44-3.36,16.44-3.36l3.3-10.17s-5.27-9.76-11.33-12.38Z"/>
    <path class="cls-2" d="M19.47,48.19c-.99,0-1.96-.09-2.86-.29-1.88-.42-3.29-1.44-4.05-2.95-.65-1.28-1.12-3.51.28-6.89-.12-.87-.43-3.81.42-6.44.86-2.66,2.84-4.86,3.46-5.49.85-3.56,2.54-5.08,3.82-5.73,1.51-.77,3.24-.77,5.01,0,6.25,2.71,11.51,12.34,11.73,12.75l-1.48.8c-.05-.1-5.21-9.53-10.92-12.01-1.3-.56-2.54-.57-3.59-.04-1.42.72-2.46,2.4-3,4.84-.04.16-.12.3-.23.42-.02.02-2.33,2.3-3.2,4.95-.88,2.7-.34,5.89-.34,5.92.03.16,0,.33-.06.48-1,2.3-1.14,4.26-.42,5.68.53,1.05,1.55,1.77,2.92,2.07,6.08,1.35,15.8-3.25,15.9-3.3l.72,1.51c-.36.17-7.82,3.71-14.13,3.71Z"/>
    <path class="cls-2" d="M17.07,38.86s-.03,0-.04,0l-3.27-.23c-.33-.02-.58-.31-.56-.64.02-.33.31-.58.64-.56l3.27.23c.33.02.58.31.56.64-.02.32-.29.56-.6.56Z"/>
    <path class="cls-2" d="M20.24,29.07c-.11,0-.22-.03-.32-.09l-2.77-1.74c-.28-.17-.37-.55-.19-.83.18-.28.55-.37.83-.19l2.77,1.74c.28.17.37.55.19.83-.11.18-.31.28-.51.28Z"/>
    <path class="cls-1" d="M41.21,47.93l-8.65-6.29s-10.91,2-15.28,6.95c-2.39,2.71-1.88,6.3,2.73,9.02,0,0,1.52,3.09,3.98,4.88l.03.02c2.46,1.79,5.87,2.28,5.87,2.28,4.02,3.55,7.59,2.92,9.43-.19,3.36-5.68,1.89-16.68,1.89-16.68Z"/>
    <path class="cls-2" d="M35.13,68.04c-1.4,0-3.33-.52-5.6-2.46-.87-.15-3.76-.77-5.99-2.39-2.26-1.64-3.74-4.21-4.16-4.98-3.12-1.91-4.05-3.99-4.27-5.41-.27-1.67.27-3.32,1.55-4.77,4.51-5.11,15.3-7.13,15.75-7.22l.3,1.65c-.11.02-10.68,2.01-14.8,6.68-.94,1.06-1.33,2.24-1.15,3.4.25,1.57,1.52,3.08,3.68,4.35.14.08.25.2.33.35.01.03,1.46,2.93,3.72,4.57,2.3,1.67,5.5,2.15,5.53,2.15.16.02.31.09.43.2,1.88,1.66,3.71,2.4,5.27,2.15,1.16-.18,2.16-.92,2.88-2.14,3.17-5.36,1.79-16.03,1.78-16.14l1.66-.22c.06.46,1.47,11.35-2,17.21-.98,1.66-2.38,2.68-4.06,2.94-.26.04-.54.07-.85.07Z"/>
    <path class="cls-2" d="M29.79,65.25c-.08,0-.15-.01-.23-.04-.31-.12-.46-.47-.33-.78l1.22-3.04c.12-.31.47-.45.78-.33.31.12.46.47.33.78l-1.22,3.04c-.09.23-.32.37-.55.37Z"/>
    <path class="cls-2" d="M20.18,58.27c-.17,0-.34-.07-.46-.21-.21-.25-.18-.63.07-.84l2.51-2.1c.25-.21.63-.18.84.07.21.25.18.63-.07.84l-2.51,2.1c-.11.09-.25.14-.38.14Z"/>
    <path class="cls-1" d="M62.95,48.59c-.35-.4-.75-.78-1.18-1.15l-12.39-2.7-4.59,4.53-5.98.87c-.24,3.51-.33,10.36,2.09,14.46,1.84,3.11,5.41,3.74,9.43.19,0,0,3.41-.49,5.87-2.28l.03-.02c2.46-1.79,3.98-4.88,3.98-4.88,4.62-2.73,5.12-6.32,2.73-9.02Z"/>
    <path class="cls-2" d="M45.1,68.04c-.31,0-.6-.03-.86-.07-1.67-.26-3.07-1.28-4.06-2.94-3.47-5.86-2.06-16.75-2-17.21l1.66.22c-.02.11-1.39,10.77,1.78,16.14.72,1.22,1.71,1.96,2.88,2.14,1.57.25,3.4-.49,5.27-2.15.12-.11.27-.18.43-.2.03,0,3.24-.49,5.5-2.13,2.29-1.67,3.74-4.57,3.76-4.59.07-.15.19-.27.33-.35,2.16-1.27,3.43-2.78,3.68-4.35.18-1.16-.21-2.34-1.15-3.4-.32-.36-.68-.71-1.09-1.06l1.08-1.28c.47.4.9.81,1.27,1.23,1.28,1.45,1.81,3.1,1.55,4.77-.23,1.42-1.15,3.5-4.27,5.41-.41.78-1.89,3.34-4.12,4.96-2.26,1.64-5.16,2.26-6.02,2.41-2.27,1.94-4.2,2.46-5.6,2.46Z"/>
    <path class="cls-2" d="M48.88,48.91c-.14,0-.27-.05-.38-.14l-1.52-1.27c-.25-.21-.29-.59-.07-.84s.59-.29.84-.07l1.52,1.27c.25.21.29.59.07.84-.12.14-.29.21-.46.21Z"/>
    <path class="cls-2" d="M52.6,52.03c-.14,0-.27-.05-.38-.14l-1.85-1.55c-.25-.21-.29-.59-.08-.84.22-.25.59-.29.84-.07l1.85,1.55c.25.21.29.59.08.84-.12.14-.29.21-.46.21Z"/>
    <path class="cls-2" d="M60.05,58.27c-.14,0-.27-.05-.38-.14l-2.51-2.1c-.25-.21-.29-.59-.07-.84.21-.25.59-.29.84-.07l2.51,2.1c.25.21.29.59.07.84-.12.14-.29.21-.46.21Z"/>
    <path class="cls-2" d="M50.44,65.25c-.24,0-.46-.14-.56-.37l-1.22-3.04c-.12-.31.03-.66.33-.78.31-.12.66.03.78.33l1.22,3.04c.12.31-.03.66-.33.78-.07.03-.15.04-.22.04Z"/>
    <path class="cls-2" d="M46.84,56.22c-.24,0-.46-.14-.56-.37l-.4-1c-.12-.31.03-.66.33-.78.3-.12.65.03.78.33l.4,1c.12.31-.03.66-.33.78-.07.03-.15.04-.22.04Z"/>
    <path class="cls-2" d="M45.61,53.17c-.24,0-.46-.14-.56-.37l-1.33-3.29c-.12-.31.03-.66.33-.78.3-.12.66.02.78.33l1.33,3.29c.12.31-.03.66-.33.78-.07.03-.15.04-.22.04Z"/>
    <path class="cls-2" d="M60.76,48.19c-6.31,0-13.77-3.53-14.13-3.71l.72-1.51c.1.05,9.82,4.66,15.9,3.3,1.38-.31,2.39-1.02,2.92-2.07.72-1.42.58-3.38-.42-5.68-.06-.15-.08-.32-.06-.48,0-.03.54-3.23-.32-5.89-.87-2.7-3.19-4.97-3.21-4.99-.12-.11-.2-.26-.23-.42-.55-2.44-1.58-4.12-3-4.84-1.05-.53-2.29-.52-3.59.04-.48.21-.98.48-1.49.8l-.91-1.41c.58-.37,1.16-.69,1.73-.93,1.77-.77,3.51-.77,5.01,0,1.28.65,2.97,2.18,3.82,5.73.61.63,2.59,2.83,3.44,5.46.86,2.66.55,5.6.43,6.48,1.4,3.38.93,5.6.28,6.89-.77,1.51-2.17,2.53-4.05,2.95-.9.2-1.86.29-2.86.29Z"/>
    <path class="cls-2" d="M59.99,29.07c-.2,0-.39-.1-.51-.28-.17-.28-.09-.65.19-.83l2.77-1.74c.28-.17.65-.09.83.19.17.28.09.65-.19.83l-2.77,1.74c-.1.06-.21.09-.32.09Z"/>
    <path class="cls-2" d="M63.16,38.86c-.31,0-.57-.24-.6-.56-.02-.33.23-.62.56-.64l3.27-.23c.32-.03.62.23.64.56.02.33-.23.62-.56.64l-3.27.23s-.03,0-.04,0Z"/>
    <circle class="cls-3" cx="40.11" cy="40.34" r="9.89"/>
    <path class="cls-2" d="M40.11,50.83c-5.79,0-10.49-4.71-10.49-10.49s4.71-10.49,10.49-10.49,10.49,4.71,10.49,10.49-4.71,10.49-10.49,10.49ZM40.11,31.04c-5.12,0-9.3,4.17-9.3,9.29s4.17,9.3,9.3,9.3,9.3-4.17,9.3-9.3c0-5.12-4.17-9.29-9.3-9.29Z"/>
    <path class="cls-4" d="M40.11,36.3c2.65,0,3.59,1.8,4.79,4.19,0,2.65-2.15,4.79-4.79,4.79-.23,0-.46-.02-.67-.05-1.72-1.15-3.64-2.33-3.64-4.74,0-2.65,1.67-4.19,4.31-4.19Z"/>
    <path class="cls-2" d="M41.97,44.85c-.22,0-.43-.12-.54-.33-.15-.3-.03-.66.27-.8.33-.16.63-.37.89-.62.24-.23.62-.22.85.02s.22.62-.02.85c-.35.34-.75.62-1.19.83-.09.04-.18.06-.27.06Z"/>
    <path class="cls-2" d="M39.52,45.24s-.06,0-.09,0c-2.34-.34-4.11-2.37-4.11-4.74,0-2.64,2.15-4.79,4.79-4.79s4.79,2.15,4.79,4.79c0,.13,0,.27-.02.4-.03.33-.3.57-.65.55-.33-.03-.57-.32-.55-.65,0-.1.01-.2.01-.3,0-1.98-1.61-3.59-3.59-3.59s-3.59,1.61-3.59,3.59c0,1.78,1.32,3.3,3.08,3.56.33.05.55.35.51.68-.04.3-.3.51-.59.51Z"/>
    <path class="cls-2" d="M48.87,36.22c-.2,0-.39-.1-.51-.28-.17-.28-.09-.65.19-.83l5.46-3.42c.28-.17.65-.09.83.19.17.28.09.65-.19.83l-5.46,3.42c-.1.06-.21.09-.32.09Z"/>
    <path class="cls-2" d="M50.06,39.88c-.31,0-.57-.24-.6-.56-.02-.33.23-.62.56-.64l6.43-.45c.32-.02.62.23.64.56.02.33-.23.62-.56.64l-6.43.45s-.03,0-.04,0Z"/>
    <path class="cls-2" d="M31.36,36.22c-.11,0-.22-.03-.32-.09l-5.46-3.42c-.28-.17-.37-.55-.19-.83.17-.28.55-.36.83-.19l5.46,3.42c.28.17.37.55.19.83-.11.18-.31.28-.51.28Z"/>
    <path class="cls-2" d="M30.17,39.88s-.03,0-.04,0l-2.59-.18c-.33-.02-.58-.31-.56-.64.02-.33.32-.58.64-.56l2.59.18c.33.02.58.31.56.64-.02.32-.29.56-.6.56Z"/>
    <path class="cls-2" d="M25.15,39.53s-.03,0-.04,0l-1.41-.1c-.33-.02-.58-.31-.56-.64.02-.33.31-.57.64-.56l1.41.1c.33.02.58.31.56.64-.02.32-.29.56-.6.56Z"/>
    <path class="cls-2" d="M33.48,56.16c-.08,0-.15-.01-.22-.04-.31-.12-.46-.47-.33-.78l2.41-5.98c.12-.31.47-.45.78-.33.31.12.46.47.33.78l-2.41,5.98c-.09.23-.32.37-.55.37Z"/>
    <path class="cls-2" d="M27.87,52.08c-.17,0-.34-.07-.46-.21-.21-.25-.18-.63.07-.84l1.57-1.31c.25-.21.63-.18.84.07.21.25.18.63-.07.84l-1.57,1.31c-.11.09-.25.14-.38.14Z"/>
    <path class="cls-2" d="M31.17,49.32c-.17,0-.34-.04-.46-.12-.21-.14-.18-.34.07-.46l1.64-.75c.25-.11.63-.1.84.04.21.14.18.34-.07.46l-1.64.75c-.11.05-.25.08-.38.08Z"/>
  </g>
</svg>