<?xml version="1.0" encoding="UTF-8"?>
<svg id="cerdo" xmlns="http://www.w3.org/2000/svg" viewBox="0 0 50 36.98">
  <defs>
    <style>
      .cls-1 {
        fill: #1b3b21;
      }
    </style>
  </defs>
  <path class="cls-1" d="M26.66,17.83c-1.06-.41-3.72-.59-3.61-2.16.14-1.96,4.25-1.84,4.09.42h1.8c.09-1.68-1.22-3.22-2.87-3.49l-.06-1.44-1.75-.11-.05,1.45c-3.78.94-4.13,5.06-.34,6.45,1.06.39,3.8.69,3.63,2.35-.24,2.29-4.97,1.78-4.91-.65h-1.92c.19,2.03,1.68,3.36,3.54,3.96l.06,1.32h1.8v-1.44c4.04-.58,4.46-5.17.6-6.66Z"/>
  <path class="cls-1" d="M49.11,6.63c-.27.08-1.13,1.56-1.87,1.38.82-1.65-.07-4.41-2.3-3.55-1.55.6-1.57,2.73-.6,3.9.14.17.73.58.7.7-.46.34-1.08.41-1.63.33-.24-.35-.49-.69-.76-1.02-3.34-4.12-8.55-6.43-13.84-6.68-3.07-.15-8.77.07-11.65.51-.92.14-2.64.02-3.48-.4C11.67.8,9.33.11,7.18,0c-1-.05-1.59.2-1.43,1.33,0,0,.95,2.47,1.66,4.31.45,1.15.32,2.45-.38,3.48-.42.62-.8,1.27-1.13,1.94-.54,1.1-1.62,1.83-2.83,2.01-.8.12-1.6.24-2.35.5-.37.29-.56.61-.61,1.09-.16,1.67-.16,5.34,0,7.01.06.63.42,1.07,1.01,1.29l3.29.55c1.03.17,1.95.75,2.53,1.62.85,1.29,1.93,2.43,3.08,3.46.51.45.93,1.01,1.13,1.67.58,1.86.9,3.95,1.6,5.68.16.41.42.81.87.93.58.15,3.46.12,4.16.05.61-.06.96-.41,1.18-.89.72-1.51,2.33-2.38,3.99-2.22h.1c1.36.14,2.72.14,4.08.02l.18-.02c1.66-.15,3.27.72,3.98,2.22.23.47.57.83,1.18.89.68.07,3.71.09,4.23-.08.13-.04.33-.17.43-.27.42-.4.88-2.36,1.15-3.05.8-2.1,1.94-4.14,3.23-5.98.51-.73,1.37-1.85,1.98-2.88.18-.31.7-1.25.7-1.25,1.17-2.47,1.64-3.82,1.55-6.66-.07-2.25-.59-4.14-1.6-6.15.51,0,.97-.21,1.4-.45.31-.17.96-.8,1.07-.83.32-.09.78-.06,1.21-.19.67-.21,2.08-1.19,2.17-1.91.07-.52-.43-.74-.88-.59ZM32.93,22.6c-3.11,6.05-11.69,6.53-15.43.84-3.61-5.49-.19-13.17,6.37-13.84,7.15-.73,12.39,6.54,9.06,13ZM45.88,8c-1.04-.19-1.49-2.24-.37-2.48,1.15-.24.92,1.96.37,2.48Z"/>
</svg>